<?xml version="1.0" standalone="no"?>
<!DOCTYPE svg PUBLIC "-//W3C//DTD SVG 20010904//EN"
 "http://www.w3.org/TR/2001/REC-SVG-20010904/DTD/svg10.dtd">
<svg version="1.0" xmlns="http://www.w3.org/2000/svg"
 width="512.000000pt" height="512.000000pt" viewBox="0 0 512.000000 512.000000"
 preserveAspectRatio="xMidYMid meet">
<metadata>
Created by potrace 1.11, written by Peter Selinger 2001-2013
</metadata>
<g transform="translate(0.000000,512.000000) scale(0.100000,-0.100000)"
fill="#000000" stroke="none">
<path d="M2825 4696 c-75 -20 -101 -32 -161 -75 -31 -22 -77 -44 -107 -51
-144 -34 -226 -106 -273 -240 -18 -53 -134 -280 -158 -310 -6 -8 -22 -35 -35
-59 -45 -83 -104 -166 -167 -233 -58 -62 -117 -161 -130 -218 -3 -14 -9 -64
-12 -112 -6 -70 -12 -91 -30 -110 -12 -14 -22 -27 -22 -31 0 -4 -18 -33 -39
-65 -21 -31 -77 -134 -124 -227 -47 -94 -103 -197 -125 -230 -33 -52 -146
-191 -178 -220 -25 -23 -120 -144 -153 -195 -53 -84 -127 -213 -194 -340 -101
-193 -137 -250 -231 -371 -50 -63 -102 -130 -116 -149 -14 -19 -36 -48 -50
-64 -14 -17 -39 -49 -55 -71 -16 -22 -31 -42 -34 -45 -16 -14 -71 -90 -94
-130 -36 -63 -56 -155 -51 -237 11 -153 89 -285 228 -381 173 -121 393 -128
558 -18 75 49 94 75 380 531 73 116 157 233 238 330 69 82 136 166 150 185 13
19 29 40 35 47 5 7 26 33 45 59 19 26 58 74 86 108 57 68 187 241 339 451 55
76 105 143 110 149 6 6 26 34 45 61 18 28 36 52 40 55 10 8 85 122 110 168 14
24 31 42 41 42 41 0 176 -272 219 -439 5 -20 18 -70 29 -111 11 -41 23 -93 27
-115 3 -22 7 -42 9 -45 2 -3 7 -33 10 -65 4 -33 9 -62 10 -65 2 -3 7 -32 10
-65 9 -72 9 -73 23 -108 43 -103 143 -174 259 -184 154 -12 501 113 730 263
140 93 305 241 398 358 17 21 35 43 41 50 28 30 128 187 168 265 86 166 153
367 185 556 6 33 13 76 16 95 12 69 12 96 -1 159 -13 63 -51 127 -96 159 -9 7
-23 18 -30 25 -7 7 -38 22 -68 33 -195 76 -278 110 -300 121 -14 7 -29 13 -33
13 -36 0 -546 255 -670 334 -62 40 -61 37 -57 152 9 290 -303 603 -619 619
-45 3 -97 -1 -126 -9z"/>
</g>
</svg>
